<mxfile host="app.diagrams.net" modified="2023-05-05T00:28:30.743Z" agent="Mozilla/5.0 (Windows NT 10.0; Win64; x64) AppleWebKit/537.36 (KHTML, like Gecko) Chrome/112.0.0.0 Safari/537.36" etag="kG41tkbipln-vjNJmCDl" version="21.2.3" type="github">
  <diagram id="C5RBs43oDa-KdzZeNtuy" name="Page-1">
    <mxGraphModel dx="2074" dy="1128" grid="1" gridSize="10" guides="1" tooltips="1" connect="1" arrows="1" fold="1" page="1" pageScale="1" pageWidth="827" pageHeight="1169" math="0" shadow="0">
      <root>
        <mxCell id="WIyWlLk6GJQsqaUBKTNV-0" />
        <mxCell id="WIyWlLk6GJQsqaUBKTNV-1" parent="WIyWlLk6GJQsqaUBKTNV-0" />
        <mxCell id="3nBCFJaMM4fNMm-nfA73-2" style="edgeStyle=orthogonalEdgeStyle;rounded=0;orthogonalLoop=1;jettySize=auto;html=1;entryX=0.5;entryY=0;entryDx=0;entryDy=0;fillColor=#d5e8d4;strokeColor=#82b366;" parent="WIyWlLk6GJQsqaUBKTNV-1" source="WIyWlLk6GJQsqaUBKTNV-3" target="3nBCFJaMM4fNMm-nfA73-0" edge="1">
          <mxGeometry relative="1" as="geometry" />
        </mxCell>
        <mxCell id="WIyWlLk6GJQsqaUBKTNV-3" value="START" style="rounded=1;whiteSpace=wrap;html=1;fontSize=12;glass=0;strokeWidth=1;shadow=0;" parent="WIyWlLk6GJQsqaUBKTNV-1" vertex="1">
          <mxGeometry x="40" y="40" width="120" height="40" as="geometry" />
        </mxCell>
        <mxCell id="3nBCFJaMM4fNMm-nfA73-5" style="edgeStyle=orthogonalEdgeStyle;rounded=0;orthogonalLoop=1;jettySize=auto;html=1;entryX=0.5;entryY=0;entryDx=0;entryDy=0;fillColor=#d5e8d4;strokeColor=#82b366;" parent="WIyWlLk6GJQsqaUBKTNV-1" source="3nBCFJaMM4fNMm-nfA73-0" target="3nBCFJaMM4fNMm-nfA73-3" edge="1">
          <mxGeometry relative="1" as="geometry" />
        </mxCell>
        <mxCell id="3nBCFJaMM4fNMm-nfA73-6" style="edgeStyle=orthogonalEdgeStyle;rounded=0;orthogonalLoop=1;jettySize=auto;html=1;entryX=0.5;entryY=0;entryDx=0;entryDy=0;fillColor=#fff2cc;strokeColor=#d6b656;" parent="WIyWlLk6GJQsqaUBKTNV-1" target="3nBCFJaMM4fNMm-nfA73-4" edge="1">
          <mxGeometry relative="1" as="geometry">
            <mxPoint x="100" y="220" as="sourcePoint" />
          </mxGeometry>
        </mxCell>
        <mxCell id="3nBCFJaMM4fNMm-nfA73-0" value="Splash/login screen" style="rounded=0;whiteSpace=wrap;html=1;" parent="WIyWlLk6GJQsqaUBKTNV-1" vertex="1">
          <mxGeometry x="40" y="120" width="120" height="60" as="geometry" />
        </mxCell>
        <mxCell id="3nBCFJaMM4fNMm-nfA73-8" style="edgeStyle=orthogonalEdgeStyle;rounded=0;orthogonalLoop=1;jettySize=auto;html=1;entryX=0.5;entryY=0;entryDx=0;entryDy=0;fillColor=#d5e8d4;strokeColor=#82b366;" parent="WIyWlLk6GJQsqaUBKTNV-1" source="3nBCFJaMM4fNMm-nfA73-3" target="3nBCFJaMM4fNMm-nfA73-7" edge="1">
          <mxGeometry relative="1" as="geometry" />
        </mxCell>
        <mxCell id="3nBCFJaMM4fNMm-nfA73-3" value="I click login" style="ellipse;whiteSpace=wrap;html=1;" parent="WIyWlLk6GJQsqaUBKTNV-1" vertex="1">
          <mxGeometry x="40" y="260" width="120" height="80" as="geometry" />
        </mxCell>
        <mxCell id="3nBCFJaMM4fNMm-nfA73-10" style="edgeStyle=orthogonalEdgeStyle;rounded=0;orthogonalLoop=1;jettySize=auto;html=1;entryX=0;entryY=0.5;entryDx=0;entryDy=0;fillColor=#d5e8d4;strokeColor=#82b366;" parent="WIyWlLk6GJQsqaUBKTNV-1" source="3nBCFJaMM4fNMm-nfA73-4" target="3nBCFJaMM4fNMm-nfA73-9" edge="1">
          <mxGeometry relative="1" as="geometry" />
        </mxCell>
        <mxCell id="3nBCFJaMM4fNMm-nfA73-4" value="I click sign up" style="ellipse;whiteSpace=wrap;html=1;" parent="WIyWlLk6GJQsqaUBKTNV-1" vertex="1">
          <mxGeometry x="200" y="260" width="120" height="80" as="geometry" />
        </mxCell>
        <mxCell id="3nBCFJaMM4fNMm-nfA73-33" style="edgeStyle=orthogonalEdgeStyle;rounded=0;orthogonalLoop=1;jettySize=auto;html=1;entryX=0.5;entryY=0;entryDx=0;entryDy=0;fillColor=#d5e8d4;strokeColor=#82b366;" parent="WIyWlLk6GJQsqaUBKTNV-1" source="3nBCFJaMM4fNMm-nfA73-7" target="3nBCFJaMM4fNMm-nfA73-32" edge="1">
          <mxGeometry relative="1" as="geometry" />
        </mxCell>
        <mxCell id="3nBCFJaMM4fNMm-nfA73-7" value="I enter username/pw" style="ellipse;whiteSpace=wrap;html=1;" parent="WIyWlLk6GJQsqaUBKTNV-1" vertex="1">
          <mxGeometry x="40" y="380" width="120" height="80" as="geometry" />
        </mxCell>
        <mxCell id="3nBCFJaMM4fNMm-nfA73-12" style="edgeStyle=orthogonalEdgeStyle;rounded=0;orthogonalLoop=1;jettySize=auto;html=1;entryX=0;entryY=0.5;entryDx=0;entryDy=0;fillColor=#d5e8d4;strokeColor=#82b366;" parent="WIyWlLk6GJQsqaUBKTNV-1" source="3nBCFJaMM4fNMm-nfA73-9" target="3nBCFJaMM4fNMm-nfA73-11" edge="1">
          <mxGeometry relative="1" as="geometry" />
        </mxCell>
        <mxCell id="3nBCFJaMM4fNMm-nfA73-9" value="Onboarding screen" style="rounded=0;whiteSpace=wrap;html=1;" parent="WIyWlLk6GJQsqaUBKTNV-1" vertex="1">
          <mxGeometry x="360" y="260" width="120" height="80" as="geometry" />
        </mxCell>
        <mxCell id="3nBCFJaMM4fNMm-nfA73-14" style="edgeStyle=orthogonalEdgeStyle;rounded=0;orthogonalLoop=1;jettySize=auto;html=1;entryX=0;entryY=0.5;entryDx=0;entryDy=0;fillColor=#d5e8d4;strokeColor=#82b366;" parent="WIyWlLk6GJQsqaUBKTNV-1" source="3nBCFJaMM4fNMm-nfA73-11" target="3nBCFJaMM4fNMm-nfA73-13" edge="1">
          <mxGeometry relative="1" as="geometry" />
        </mxCell>
        <mxCell id="3nBCFJaMM4fNMm-nfA73-11" value="I enter username, email, password, confirm password" style="ellipse;whiteSpace=wrap;html=1;" parent="WIyWlLk6GJQsqaUBKTNV-1" vertex="1">
          <mxGeometry x="520" y="260" width="120" height="80" as="geometry" />
        </mxCell>
        <mxCell id="3nBCFJaMM4fNMm-nfA73-16" style="edgeStyle=orthogonalEdgeStyle;rounded=0;orthogonalLoop=1;jettySize=auto;html=1;entryX=1;entryY=0.5;entryDx=0;entryDy=0;fillColor=#d5e8d4;strokeColor=#82b366;" parent="WIyWlLk6GJQsqaUBKTNV-1" source="3nBCFJaMM4fNMm-nfA73-13" target="3nBCFJaMM4fNMm-nfA73-0" edge="1">
          <mxGeometry relative="1" as="geometry">
            <Array as="points">
              <mxPoint x="720" y="150" />
            </Array>
          </mxGeometry>
        </mxCell>
        <mxCell id="3nBCFJaMM4fNMm-nfA73-17" style="edgeStyle=orthogonalEdgeStyle;rounded=0;orthogonalLoop=1;jettySize=auto;html=1;entryX=0.5;entryY=1;entryDx=0;entryDy=0;fillColor=#f8cecc;strokeColor=#b85450;" parent="WIyWlLk6GJQsqaUBKTNV-1" source="3nBCFJaMM4fNMm-nfA73-13" target="3nBCFJaMM4fNMm-nfA73-11" edge="1">
          <mxGeometry relative="1" as="geometry">
            <Array as="points">
              <mxPoint x="720" y="360" />
              <mxPoint x="580" y="360" />
            </Array>
          </mxGeometry>
        </mxCell>
        <mxCell id="3nBCFJaMM4fNMm-nfA73-13" value="Info validation" style="rhombus;whiteSpace=wrap;html=1;" parent="WIyWlLk6GJQsqaUBKTNV-1" vertex="1">
          <mxGeometry x="680" y="260" width="80" height="80" as="geometry" />
        </mxCell>
        <mxCell id="3nBCFJaMM4fNMm-nfA73-18" value="Info is valid" style="text;html=1;strokeColor=none;fillColor=none;align=center;verticalAlign=middle;whiteSpace=wrap;rounded=0;" parent="WIyWlLk6GJQsqaUBKTNV-1" vertex="1">
          <mxGeometry x="414" y="120" width="80" height="30" as="geometry" />
        </mxCell>
        <mxCell id="3nBCFJaMM4fNMm-nfA73-19" value="Info is invalid" style="text;html=1;strokeColor=none;fillColor=none;align=center;verticalAlign=middle;whiteSpace=wrap;rounded=0;" parent="WIyWlLk6GJQsqaUBKTNV-1" vertex="1">
          <mxGeometry x="610" y="360" width="80" height="30" as="geometry" />
        </mxCell>
        <mxCell id="3nBCFJaMM4fNMm-nfA73-25" style="edgeStyle=orthogonalEdgeStyle;rounded=0;orthogonalLoop=1;jettySize=auto;html=1;entryX=0.5;entryY=0;entryDx=0;entryDy=0;fillColor=#d5e8d4;strokeColor=#82b366;" parent="WIyWlLk6GJQsqaUBKTNV-1" source="3nBCFJaMM4fNMm-nfA73-20" target="3nBCFJaMM4fNMm-nfA73-22" edge="1">
          <mxGeometry relative="1" as="geometry" />
        </mxCell>
        <mxCell id="3nBCFJaMM4fNMm-nfA73-26" style="edgeStyle=orthogonalEdgeStyle;rounded=0;orthogonalLoop=1;jettySize=auto;html=1;entryX=0.5;entryY=0;entryDx=0;entryDy=0;fillColor=#fff2cc;strokeColor=#d6b656;" parent="WIyWlLk6GJQsqaUBKTNV-1" target="gNNI9D1vy4NJKHtHAIQB-0" edge="1">
          <mxGeometry relative="1" as="geometry">
            <mxPoint x="100" y="760" as="sourcePoint" />
          </mxGeometry>
        </mxCell>
        <mxCell id="3nBCFJaMM4fNMm-nfA73-27" style="edgeStyle=orthogonalEdgeStyle;rounded=0;orthogonalLoop=1;jettySize=auto;html=1;entryX=0;entryY=0;entryDx=0;entryDy=0;fillColor=#fff2cc;strokeColor=#d6b656;" parent="WIyWlLk6GJQsqaUBKTNV-1" target="3nBCFJaMM4fNMm-nfA73-23" edge="1">
          <mxGeometry relative="1" as="geometry">
            <mxPoint x="600" y="760" as="sourcePoint" />
          </mxGeometry>
        </mxCell>
        <mxCell id="gNNI9D1vy4NJKHtHAIQB-1" style="edgeStyle=orthogonalEdgeStyle;rounded=0;orthogonalLoop=1;jettySize=auto;html=1;entryX=0.5;entryY=0;entryDx=0;entryDy=0;fillColor=#fff2cc;strokeColor=#d6b656;" edge="1" parent="WIyWlLk6GJQsqaUBKTNV-1" target="3nBCFJaMM4fNMm-nfA73-24">
          <mxGeometry relative="1" as="geometry">
            <mxPoint x="260" y="760" as="sourcePoint" />
          </mxGeometry>
        </mxCell>
        <mxCell id="3nBCFJaMM4fNMm-nfA73-20" value="Home screen" style="rounded=0;whiteSpace=wrap;html=1;" parent="WIyWlLk6GJQsqaUBKTNV-1" vertex="1">
          <mxGeometry x="40" y="660" width="120" height="60" as="geometry" />
        </mxCell>
        <mxCell id="3nBCFJaMM4fNMm-nfA73-84" style="edgeStyle=orthogonalEdgeStyle;rounded=0;orthogonalLoop=1;jettySize=auto;html=1;entryX=0.5;entryY=0;entryDx=0;entryDy=0;fillColor=#d5e8d4;strokeColor=#82b366;" parent="WIyWlLk6GJQsqaUBKTNV-1" source="3nBCFJaMM4fNMm-nfA73-22" target="3nBCFJaMM4fNMm-nfA73-85" edge="1">
          <mxGeometry relative="1" as="geometry">
            <mxPoint x="100" y="1790" as="targetPoint" />
          </mxGeometry>
        </mxCell>
        <mxCell id="3nBCFJaMM4fNMm-nfA73-22" value="I click on any of my character sheet previews" style="ellipse;whiteSpace=wrap;html=1;" parent="WIyWlLk6GJQsqaUBKTNV-1" vertex="1">
          <mxGeometry x="40" y="800" width="120" height="80" as="geometry" />
        </mxCell>
        <mxCell id="3nBCFJaMM4fNMm-nfA73-29" style="edgeStyle=orthogonalEdgeStyle;rounded=0;orthogonalLoop=1;jettySize=auto;html=1;entryX=0;entryY=0.5;entryDx=0;entryDy=0;fillColor=#d5e8d4;strokeColor=#82b366;" parent="WIyWlLk6GJQsqaUBKTNV-1" source="3nBCFJaMM4fNMm-nfA73-23" edge="1">
          <mxGeometry relative="1" as="geometry">
            <mxPoint x="860" y="840" as="targetPoint" />
          </mxGeometry>
        </mxCell>
        <mxCell id="3nBCFJaMM4fNMm-nfA73-23" value="I search for friends" style="ellipse;whiteSpace=wrap;html=1;" parent="WIyWlLk6GJQsqaUBKTNV-1" vertex="1">
          <mxGeometry x="700" y="800" width="120" height="80" as="geometry" />
        </mxCell>
        <mxCell id="3nBCFJaMM4fNMm-nfA73-73" style="edgeStyle=orthogonalEdgeStyle;rounded=0;orthogonalLoop=1;jettySize=auto;html=1;entryX=0.5;entryY=0;entryDx=0;entryDy=0;fillColor=#d5e8d4;strokeColor=#82b366;" parent="WIyWlLk6GJQsqaUBKTNV-1" source="3nBCFJaMM4fNMm-nfA73-24" target="3nBCFJaMM4fNMm-nfA73-72" edge="1">
          <mxGeometry relative="1" as="geometry" />
        </mxCell>
        <mxCell id="3nBCFJaMM4fNMm-nfA73-24" value="I click on any of my friends&#39; character sheet previews" style="ellipse;whiteSpace=wrap;html=1;" parent="WIyWlLk6GJQsqaUBKTNV-1" vertex="1">
          <mxGeometry x="540" y="800" width="120" height="80" as="geometry" />
        </mxCell>
        <mxCell id="3nBCFJaMM4fNMm-nfA73-41" style="edgeStyle=orthogonalEdgeStyle;rounded=0;orthogonalLoop=1;jettySize=auto;html=1;entryX=0.5;entryY=0;entryDx=0;entryDy=0;fillColor=#d5e8d4;strokeColor=#82b366;" parent="WIyWlLk6GJQsqaUBKTNV-1" source="3nBCFJaMM4fNMm-nfA73-30" target="3nBCFJaMM4fNMm-nfA73-31" edge="1">
          <mxGeometry relative="1" as="geometry">
            <Array as="points">
              <mxPoint x="920" y="920" />
              <mxPoint x="920" y="920" />
            </Array>
          </mxGeometry>
        </mxCell>
        <mxCell id="3nBCFJaMM4fNMm-nfA73-42" style="edgeStyle=orthogonalEdgeStyle;rounded=0;orthogonalLoop=1;jettySize=auto;html=1;entryX=0.5;entryY=0;entryDx=0;entryDy=0;fillColor=#fff2cc;strokeColor=#d6b656;" parent="WIyWlLk6GJQsqaUBKTNV-1" target="3nBCFJaMM4fNMm-nfA73-39" edge="1">
          <mxGeometry relative="1" as="geometry">
            <mxPoint x="920" y="920" as="sourcePoint" />
          </mxGeometry>
        </mxCell>
        <mxCell id="3nBCFJaMM4fNMm-nfA73-43" style="edgeStyle=orthogonalEdgeStyle;rounded=0;orthogonalLoop=1;jettySize=auto;html=1;fillColor=#fff2cc;strokeColor=#d6b656;" parent="WIyWlLk6GJQsqaUBKTNV-1" target="3nBCFJaMM4fNMm-nfA73-40" edge="1">
          <mxGeometry relative="1" as="geometry">
            <mxPoint x="1080" y="920" as="sourcePoint" />
          </mxGeometry>
        </mxCell>
        <mxCell id="3nBCFJaMM4fNMm-nfA73-30" value="&lt;span style=&quot;color: rgb(0, 0, 0); font-family: Helvetica; font-size: 12px; font-style: normal; font-variant-ligatures: normal; font-variant-caps: normal; font-weight: 400; letter-spacing: normal; orphans: 2; text-align: center; text-indent: 0px; text-transform: none; widows: 2; word-spacing: 0px; -webkit-text-stroke-width: 0px; background-color: rgb(251, 251, 251); text-decoration-thickness: initial; text-decoration-style: initial; text-decoration-color: initial; float: none; display: inline !important;&quot;&gt;Dropdown list populates with the top 20 usernames that match the search&lt;/span&gt;" style="shape=process;whiteSpace=wrap;html=1;backgroundOutline=1;" parent="WIyWlLk6GJQsqaUBKTNV-1" vertex="1">
          <mxGeometry x="860" y="800" width="120" height="80" as="geometry" />
        </mxCell>
        <mxCell id="3nBCFJaMM4fNMm-nfA73-66" style="edgeStyle=orthogonalEdgeStyle;rounded=0;orthogonalLoop=1;jettySize=auto;html=1;fillColor=#d5e8d4;strokeColor=#82b366;" parent="WIyWlLk6GJQsqaUBKTNV-1" source="3nBCFJaMM4fNMm-nfA73-31" target="3nBCFJaMM4fNMm-nfA73-65" edge="1">
          <mxGeometry relative="1" as="geometry" />
        </mxCell>
        <mxCell id="3nBCFJaMM4fNMm-nfA73-31" value="I click on my friend&#39;s username" style="ellipse;whiteSpace=wrap;html=1;" parent="WIyWlLk6GJQsqaUBKTNV-1" vertex="1">
          <mxGeometry x="860" y="960" width="120" height="80" as="geometry" />
        </mxCell>
        <mxCell id="3nBCFJaMM4fNMm-nfA73-34" style="edgeStyle=orthogonalEdgeStyle;rounded=0;orthogonalLoop=1;jettySize=auto;html=1;entryX=0.5;entryY=0;entryDx=0;entryDy=0;fillColor=#d5e8d4;strokeColor=#82b366;" parent="WIyWlLk6GJQsqaUBKTNV-1" source="3nBCFJaMM4fNMm-nfA73-32" target="3nBCFJaMM4fNMm-nfA73-20" edge="1">
          <mxGeometry relative="1" as="geometry" />
        </mxCell>
        <mxCell id="3nBCFJaMM4fNMm-nfA73-35" style="edgeStyle=orthogonalEdgeStyle;rounded=0;orthogonalLoop=1;jettySize=auto;html=1;entryX=1;entryY=0.5;entryDx=0;entryDy=0;exitX=1;exitY=0.5;exitDx=0;exitDy=0;fillColor=#f8cecc;strokeColor=#b85450;" parent="WIyWlLk6GJQsqaUBKTNV-1" source="3nBCFJaMM4fNMm-nfA73-32" target="3nBCFJaMM4fNMm-nfA73-7" edge="1">
          <mxGeometry relative="1" as="geometry">
            <Array as="points">
              <mxPoint x="180" y="540" />
              <mxPoint x="180" y="420" />
            </Array>
          </mxGeometry>
        </mxCell>
        <mxCell id="3nBCFJaMM4fNMm-nfA73-32" value="Info validation" style="rhombus;whiteSpace=wrap;html=1;" parent="WIyWlLk6GJQsqaUBKTNV-1" vertex="1">
          <mxGeometry x="60" y="500" width="80" height="80" as="geometry" />
        </mxCell>
        <mxCell id="3nBCFJaMM4fNMm-nfA73-36" value="Info is valid" style="text;html=1;strokeColor=none;fillColor=none;align=center;verticalAlign=middle;whiteSpace=wrap;rounded=0;" parent="WIyWlLk6GJQsqaUBKTNV-1" vertex="1">
          <mxGeometry x="100" y="590" width="80" height="30" as="geometry" />
        </mxCell>
        <mxCell id="3nBCFJaMM4fNMm-nfA73-37" value="Info is invalid" style="text;html=1;strokeColor=none;fillColor=none;align=center;verticalAlign=middle;whiteSpace=wrap;rounded=0;" parent="WIyWlLk6GJQsqaUBKTNV-1" vertex="1">
          <mxGeometry x="180" y="470" width="80" height="30" as="geometry" />
        </mxCell>
        <mxCell id="3nBCFJaMM4fNMm-nfA73-51" style="edgeStyle=orthogonalEdgeStyle;rounded=0;orthogonalLoop=1;jettySize=auto;html=1;entryX=0.5;entryY=0;entryDx=0;entryDy=0;fillColor=#d5e8d4;strokeColor=#82b366;" parent="WIyWlLk6GJQsqaUBKTNV-1" source="3nBCFJaMM4fNMm-nfA73-39" target="3nBCFJaMM4fNMm-nfA73-50" edge="1">
          <mxGeometry relative="1" as="geometry" />
        </mxCell>
        <mxCell id="3nBCFJaMM4fNMm-nfA73-39" value="I click the friend request button next to the username of a stranger" style="ellipse;whiteSpace=wrap;html=1;" parent="WIyWlLk6GJQsqaUBKTNV-1" vertex="1">
          <mxGeometry x="1020" y="960" width="120" height="80" as="geometry" />
        </mxCell>
        <mxCell id="3nBCFJaMM4fNMm-nfA73-45" style="edgeStyle=orthogonalEdgeStyle;rounded=0;orthogonalLoop=1;jettySize=auto;html=1;entryX=0;entryY=0.5;entryDx=0;entryDy=0;fillColor=#d5e8d4;strokeColor=#82b366;" parent="WIyWlLk6GJQsqaUBKTNV-1" source="3nBCFJaMM4fNMm-nfA73-40" target="3nBCFJaMM4fNMm-nfA73-44" edge="1">
          <mxGeometry relative="1" as="geometry" />
        </mxCell>
        <mxCell id="3nBCFJaMM4fNMm-nfA73-40" value="I click a stranger&#39;s username" style="ellipse;whiteSpace=wrap;html=1;" parent="WIyWlLk6GJQsqaUBKTNV-1" vertex="1">
          <mxGeometry x="1180" y="960" width="120" height="80" as="geometry" />
        </mxCell>
        <mxCell id="3nBCFJaMM4fNMm-nfA73-46" style="edgeStyle=orthogonalEdgeStyle;rounded=0;orthogonalLoop=1;jettySize=auto;html=1;entryX=1;entryY=0;entryDx=0;entryDy=0;fillColor=#fff2cc;strokeColor=#d6b656;" parent="WIyWlLk6GJQsqaUBKTNV-1" source="3nBCFJaMM4fNMm-nfA73-44" target="3nBCFJaMM4fNMm-nfA73-23" edge="1">
          <mxGeometry relative="1" as="geometry">
            <Array as="points">
              <mxPoint x="1400" y="760" />
              <mxPoint x="802" y="760" />
            </Array>
          </mxGeometry>
        </mxCell>
        <mxCell id="3nBCFJaMM4fNMm-nfA73-48" style="edgeStyle=orthogonalEdgeStyle;rounded=0;orthogonalLoop=1;jettySize=auto;html=1;entryX=0;entryY=0.5;entryDx=0;entryDy=0;fillColor=#d5e8d4;strokeColor=#82b366;" parent="WIyWlLk6GJQsqaUBKTNV-1" source="3nBCFJaMM4fNMm-nfA73-44" target="3nBCFJaMM4fNMm-nfA73-47" edge="1">
          <mxGeometry relative="1" as="geometry" />
        </mxCell>
        <mxCell id="3nBCFJaMM4fNMm-nfA73-44" value="Stranger screen" style="rounded=0;whiteSpace=wrap;html=1;" parent="WIyWlLk6GJQsqaUBKTNV-1" vertex="1">
          <mxGeometry x="1340" y="960" width="120" height="80" as="geometry" />
        </mxCell>
        <mxCell id="3nBCFJaMM4fNMm-nfA73-49" style="edgeStyle=orthogonalEdgeStyle;rounded=0;orthogonalLoop=1;jettySize=auto;html=1;entryX=1;entryY=0.5;entryDx=0;entryDy=0;fillColor=#d5e8d4;strokeColor=#82b366;" parent="WIyWlLk6GJQsqaUBKTNV-1" source="3nBCFJaMM4fNMm-nfA73-47" target="3nBCFJaMM4fNMm-nfA73-20" edge="1">
          <mxGeometry relative="1" as="geometry">
            <Array as="points">
              <mxPoint x="1640" y="1000" />
              <mxPoint x="1640" y="690" />
            </Array>
          </mxGeometry>
        </mxCell>
        <mxCell id="3nBCFJaMM4fNMm-nfA73-47" value="I click the home button" style="ellipse;whiteSpace=wrap;html=1;" parent="WIyWlLk6GJQsqaUBKTNV-1" vertex="1">
          <mxGeometry x="1500" y="960" width="120" height="80" as="geometry" />
        </mxCell>
        <mxCell id="3nBCFJaMM4fNMm-nfA73-54" style="edgeStyle=orthogonalEdgeStyle;rounded=0;orthogonalLoop=1;jettySize=auto;html=1;entryX=0;entryY=0.5;entryDx=0;entryDy=0;fillColor=#d5e8d4;strokeColor=#82b366;" parent="WIyWlLk6GJQsqaUBKTNV-1" source="3nBCFJaMM4fNMm-nfA73-50" target="3nBCFJaMM4fNMm-nfA73-52" edge="1">
          <mxGeometry relative="1" as="geometry" />
        </mxCell>
        <mxCell id="3nBCFJaMM4fNMm-nfA73-50" value="The friend request button becomes a loading icon until a response is received from the API" style="shape=process;whiteSpace=wrap;html=1;backgroundOutline=1;" parent="WIyWlLk6GJQsqaUBKTNV-1" vertex="1">
          <mxGeometry x="1020" y="1080" width="120" height="100" as="geometry" />
        </mxCell>
        <mxCell id="3nBCFJaMM4fNMm-nfA73-57" style="edgeStyle=orthogonalEdgeStyle;rounded=0;orthogonalLoop=1;jettySize=auto;html=1;entryX=0.5;entryY=0;entryDx=0;entryDy=0;fillColor=#f8cecc;strokeColor=#b85450;" parent="WIyWlLk6GJQsqaUBKTNV-1" source="3nBCFJaMM4fNMm-nfA73-52" target="3nBCFJaMM4fNMm-nfA73-56" edge="1">
          <mxGeometry relative="1" as="geometry" />
        </mxCell>
        <mxCell id="3nBCFJaMM4fNMm-nfA73-58" style="edgeStyle=orthogonalEdgeStyle;rounded=0;orthogonalLoop=1;jettySize=auto;html=1;entryX=0;entryY=0.5;entryDx=0;entryDy=0;fillColor=#d5e8d4;strokeColor=#82b366;" parent="WIyWlLk6GJQsqaUBKTNV-1" source="3nBCFJaMM4fNMm-nfA73-52" target="3nBCFJaMM4fNMm-nfA73-55" edge="1">
          <mxGeometry relative="1" as="geometry" />
        </mxCell>
        <mxCell id="3nBCFJaMM4fNMm-nfA73-52" value="Response from the API" style="rhombus;whiteSpace=wrap;html=1;" parent="WIyWlLk6GJQsqaUBKTNV-1" vertex="1">
          <mxGeometry x="1180" y="1080" width="100" height="100" as="geometry" />
        </mxCell>
        <mxCell id="3nBCFJaMM4fNMm-nfA73-55" value="Loading icon becomes a checkmark" style="shape=process;whiteSpace=wrap;html=1;backgroundOutline=1;" parent="WIyWlLk6GJQsqaUBKTNV-1" vertex="1">
          <mxGeometry x="1360" y="1080" width="120" height="100" as="geometry" />
        </mxCell>
        <mxCell id="3nBCFJaMM4fNMm-nfA73-56" value="Loading icon becomes the friend request icon again" style="shape=process;whiteSpace=wrap;html=1;backgroundOutline=1;" parent="WIyWlLk6GJQsqaUBKTNV-1" vertex="1">
          <mxGeometry x="1170" y="1250" width="120" height="60" as="geometry" />
        </mxCell>
        <mxCell id="3nBCFJaMM4fNMm-nfA73-59" value="Success" style="text;html=1;strokeColor=none;fillColor=none;align=center;verticalAlign=middle;whiteSpace=wrap;rounded=0;" parent="WIyWlLk6GJQsqaUBKTNV-1" vertex="1">
          <mxGeometry x="1280" y="1100" width="60" height="30" as="geometry" />
        </mxCell>
        <mxCell id="3nBCFJaMM4fNMm-nfA73-60" value="Failure" style="text;html=1;strokeColor=none;fillColor=none;align=center;verticalAlign=middle;whiteSpace=wrap;rounded=0;" parent="WIyWlLk6GJQsqaUBKTNV-1" vertex="1">
          <mxGeometry x="1220" y="1195" width="60" height="30" as="geometry" />
        </mxCell>
        <mxCell id="3nBCFJaMM4fNMm-nfA73-62" value="" style="endArrow=none;html=1;rounded=0;exitX=1;exitY=0.5;exitDx=0;exitDy=0;fillColor=#d5e8d4;strokeColor=#82b366;" parent="WIyWlLk6GJQsqaUBKTNV-1" source="3nBCFJaMM4fNMm-nfA73-55" edge="1">
          <mxGeometry width="50" height="50" relative="1" as="geometry">
            <mxPoint x="690" y="1070" as="sourcePoint" />
            <mxPoint x="1220" y="690" as="targetPoint" />
            <Array as="points">
              <mxPoint x="1640" y="1130" />
              <mxPoint x="1640" y="690" />
              <mxPoint x="1460" y="690" />
            </Array>
          </mxGeometry>
        </mxCell>
        <mxCell id="3nBCFJaMM4fNMm-nfA73-64" value="" style="endArrow=none;html=1;rounded=0;exitX=1;exitY=0.5;exitDx=0;exitDy=0;fillColor=#d5e8d4;strokeColor=#82b366;" parent="WIyWlLk6GJQsqaUBKTNV-1" source="3nBCFJaMM4fNMm-nfA73-56" edge="1">
          <mxGeometry width="50" height="50" relative="1" as="geometry">
            <mxPoint x="1030" y="1070" as="sourcePoint" />
            <mxPoint x="1640" y="1130" as="targetPoint" />
            <Array as="points">
              <mxPoint x="1640" y="1280" />
            </Array>
          </mxGeometry>
        </mxCell>
        <mxCell id="3nBCFJaMM4fNMm-nfA73-67" style="edgeStyle=orthogonalEdgeStyle;rounded=0;orthogonalLoop=1;jettySize=auto;html=1;entryX=1;entryY=1;entryDx=0;entryDy=0;fillColor=#fff2cc;strokeColor=#d6b656;" parent="WIyWlLk6GJQsqaUBKTNV-1" source="3nBCFJaMM4fNMm-nfA73-65" target="3nBCFJaMM4fNMm-nfA73-24" edge="1">
          <mxGeometry relative="1" as="geometry" />
        </mxCell>
        <mxCell id="3nBCFJaMM4fNMm-nfA73-68" style="edgeStyle=orthogonalEdgeStyle;rounded=0;orthogonalLoop=1;jettySize=auto;html=1;entryX=0.5;entryY=1;entryDx=0;entryDy=0;fillColor=#fff2cc;strokeColor=#d6b656;" parent="WIyWlLk6GJQsqaUBKTNV-1" source="3nBCFJaMM4fNMm-nfA73-65" target="3nBCFJaMM4fNMm-nfA73-23" edge="1">
          <mxGeometry relative="1" as="geometry" />
        </mxCell>
        <mxCell id="3nBCFJaMM4fNMm-nfA73-70" style="edgeStyle=orthogonalEdgeStyle;rounded=0;orthogonalLoop=1;jettySize=auto;html=1;entryX=0;entryY=0.5;entryDx=0;entryDy=0;fillColor=#d5e8d4;strokeColor=#82b366;" parent="WIyWlLk6GJQsqaUBKTNV-1" source="3nBCFJaMM4fNMm-nfA73-65" target="3nBCFJaMM4fNMm-nfA73-69" edge="1">
          <mxGeometry relative="1" as="geometry" />
        </mxCell>
        <mxCell id="3nBCFJaMM4fNMm-nfA73-65" value="Friend screen" style="rounded=0;whiteSpace=wrap;html=1;" parent="WIyWlLk6GJQsqaUBKTNV-1" vertex="1">
          <mxGeometry x="860" y="1340" width="120" height="80" as="geometry" />
        </mxCell>
        <mxCell id="3nBCFJaMM4fNMm-nfA73-69" value="I click the home button" style="ellipse;whiteSpace=wrap;html=1;" parent="WIyWlLk6GJQsqaUBKTNV-1" vertex="1">
          <mxGeometry x="1020" y="1340" width="120" height="80" as="geometry" />
        </mxCell>
        <mxCell id="3nBCFJaMM4fNMm-nfA73-71" value="" style="endArrow=none;html=1;rounded=0;exitX=1;exitY=0.5;exitDx=0;exitDy=0;fillColor=#d5e8d4;strokeColor=#82b366;" parent="WIyWlLk6GJQsqaUBKTNV-1" source="3nBCFJaMM4fNMm-nfA73-69" edge="1">
          <mxGeometry width="50" height="50" relative="1" as="geometry">
            <mxPoint x="1030" y="1170" as="sourcePoint" />
            <mxPoint x="1640" y="1280" as="targetPoint" />
            <Array as="points">
              <mxPoint x="1640" y="1380" />
            </Array>
          </mxGeometry>
        </mxCell>
        <mxCell id="3nBCFJaMM4fNMm-nfA73-78" style="edgeStyle=orthogonalEdgeStyle;rounded=0;orthogonalLoop=1;jettySize=auto;html=1;fillColor=#d5e8d4;strokeColor=#82b366;" parent="WIyWlLk6GJQsqaUBKTNV-1" source="3nBCFJaMM4fNMm-nfA73-72" target="3nBCFJaMM4fNMm-nfA73-74" edge="1">
          <mxGeometry relative="1" as="geometry" />
        </mxCell>
        <mxCell id="3nBCFJaMM4fNMm-nfA73-79" style="edgeStyle=orthogonalEdgeStyle;rounded=0;orthogonalLoop=1;jettySize=auto;html=1;entryX=0.5;entryY=0;entryDx=0;entryDy=0;fillColor=#fff2cc;strokeColor=#d6b656;" parent="WIyWlLk6GJQsqaUBKTNV-1" target="3nBCFJaMM4fNMm-nfA73-75" edge="1">
          <mxGeometry relative="1" as="geometry">
            <mxPoint x="600" y="1560" as="sourcePoint" />
          </mxGeometry>
        </mxCell>
        <mxCell id="3nBCFJaMM4fNMm-nfA73-72" value="Friend&#39;s character sheet screen" style="rounded=0;whiteSpace=wrap;html=1;" parent="WIyWlLk6GJQsqaUBKTNV-1" vertex="1">
          <mxGeometry x="540" y="1460" width="120" height="60" as="geometry" />
        </mxCell>
        <mxCell id="3nBCFJaMM4fNMm-nfA73-74" value="I click the home button" style="ellipse;whiteSpace=wrap;html=1;" parent="WIyWlLk6GJQsqaUBKTNV-1" vertex="1">
          <mxGeometry x="540" y="1600" width="120" height="80" as="geometry" />
        </mxCell>
        <mxCell id="3nBCFJaMM4fNMm-nfA73-81" style="edgeStyle=orthogonalEdgeStyle;rounded=0;orthogonalLoop=1;jettySize=auto;html=1;entryX=0;entryY=0.5;entryDx=0;entryDy=0;entryPerimeter=0;fillColor=#d5e8d4;strokeColor=#82b366;" parent="WIyWlLk6GJQsqaUBKTNV-1" source="3nBCFJaMM4fNMm-nfA73-75" target="3nBCFJaMM4fNMm-nfA73-76" edge="1">
          <mxGeometry relative="1" as="geometry" />
        </mxCell>
        <mxCell id="3nBCFJaMM4fNMm-nfA73-75" value="I search for friends&amp;nbsp;" style="ellipse;whiteSpace=wrap;html=1;" parent="WIyWlLk6GJQsqaUBKTNV-1" vertex="1">
          <mxGeometry x="700" y="1600" width="120" height="80" as="geometry" />
        </mxCell>
        <mxCell id="3nBCFJaMM4fNMm-nfA73-96" style="edgeStyle=orthogonalEdgeStyle;rounded=0;orthogonalLoop=1;jettySize=auto;html=1;entryX=1;entryY=0.5;entryDx=0;entryDy=0;fillColor=#d5e8d4;strokeColor=#82b366;" parent="WIyWlLk6GJQsqaUBKTNV-1" source="3nBCFJaMM4fNMm-nfA73-76" target="3nBCFJaMM4fNMm-nfA73-72" edge="1">
          <mxGeometry relative="1" as="geometry">
            <Array as="points">
              <mxPoint x="900" y="1490" />
            </Array>
          </mxGeometry>
        </mxCell>
        <mxCell id="3nBCFJaMM4fNMm-nfA73-76" value="See above flow" style="shape=card;whiteSpace=wrap;html=1;" parent="WIyWlLk6GJQsqaUBKTNV-1" vertex="1">
          <mxGeometry x="860" y="1600" width="80" height="80" as="geometry" />
        </mxCell>
        <mxCell id="3nBCFJaMM4fNMm-nfA73-82" value="" style="endArrow=none;html=1;rounded=0;exitX=0.5;exitY=1;exitDx=0;exitDy=0;fillColor=#d5e8d4;strokeColor=#82b366;" parent="WIyWlLk6GJQsqaUBKTNV-1" source="3nBCFJaMM4fNMm-nfA73-74" edge="1">
          <mxGeometry width="50" height="50" relative="1" as="geometry">
            <mxPoint x="1030" y="1360" as="sourcePoint" />
            <mxPoint x="1640" y="1380" as="targetPoint" />
            <Array as="points">
              <mxPoint x="600" y="1700" />
              <mxPoint x="1640" y="1700" />
            </Array>
          </mxGeometry>
        </mxCell>
        <mxCell id="3nBCFJaMM4fNMm-nfA73-87" style="edgeStyle=orthogonalEdgeStyle;rounded=0;orthogonalLoop=1;jettySize=auto;html=1;entryX=0.5;entryY=0;entryDx=0;entryDy=0;fillColor=#d5e8d4;strokeColor=#82b366;" parent="WIyWlLk6GJQsqaUBKTNV-1" source="3nBCFJaMM4fNMm-nfA73-85" target="3nBCFJaMM4fNMm-nfA73-86" edge="1">
          <mxGeometry relative="1" as="geometry" />
        </mxCell>
        <mxCell id="3nBCFJaMM4fNMm-nfA73-89" style="edgeStyle=orthogonalEdgeStyle;rounded=0;orthogonalLoop=1;jettySize=auto;html=1;fillColor=#fff2cc;strokeColor=#d6b656;" parent="WIyWlLk6GJQsqaUBKTNV-1" target="3nBCFJaMM4fNMm-nfA73-88" edge="1">
          <mxGeometry relative="1" as="geometry">
            <mxPoint x="100" y="1820" as="sourcePoint" />
          </mxGeometry>
        </mxCell>
        <mxCell id="3nBCFJaMM4fNMm-nfA73-91" style="edgeStyle=orthogonalEdgeStyle;rounded=0;orthogonalLoop=1;jettySize=auto;html=1;entryX=0.5;entryY=0;entryDx=0;entryDy=0;fillColor=#fff2cc;strokeColor=#d6b656;" parent="WIyWlLk6GJQsqaUBKTNV-1" target="3nBCFJaMM4fNMm-nfA73-90" edge="1">
          <mxGeometry relative="1" as="geometry">
            <mxPoint x="260" y="1820" as="sourcePoint" />
          </mxGeometry>
        </mxCell>
        <mxCell id="3nBCFJaMM4fNMm-nfA73-85" value="My character sheet screen" style="rounded=0;whiteSpace=wrap;html=1;" parent="WIyWlLk6GJQsqaUBKTNV-1" vertex="1">
          <mxGeometry x="40" y="1720" width="120" height="60" as="geometry" />
        </mxCell>
        <mxCell id="3nBCFJaMM4fNMm-nfA73-86" value="I click the home button" style="ellipse;whiteSpace=wrap;html=1;" parent="WIyWlLk6GJQsqaUBKTNV-1" vertex="1">
          <mxGeometry x="40" y="1860" width="120" height="80" as="geometry" />
        </mxCell>
        <mxCell id="3nBCFJaMM4fNMm-nfA73-98" style="edgeStyle=orthogonalEdgeStyle;rounded=0;orthogonalLoop=1;jettySize=auto;html=1;entryX=0.5;entryY=0;entryDx=0;entryDy=0;entryPerimeter=0;fillColor=#d5e8d4;strokeColor=#82b366;" parent="WIyWlLk6GJQsqaUBKTNV-1" source="3nBCFJaMM4fNMm-nfA73-88" target="3nBCFJaMM4fNMm-nfA73-97" edge="1">
          <mxGeometry relative="1" as="geometry" />
        </mxCell>
        <mxCell id="3nBCFJaMM4fNMm-nfA73-88" value="I search for friends" style="ellipse;whiteSpace=wrap;html=1;" parent="WIyWlLk6GJQsqaUBKTNV-1" vertex="1">
          <mxGeometry x="200" y="1860" width="120" height="80" as="geometry" />
        </mxCell>
        <mxCell id="3nBCFJaMM4fNMm-nfA73-94" style="edgeStyle=orthogonalEdgeStyle;rounded=0;orthogonalLoop=1;jettySize=auto;html=1;entryX=0;entryY=0.5;entryDx=0;entryDy=0;fillColor=#d5e8d4;strokeColor=#82b366;" parent="WIyWlLk6GJQsqaUBKTNV-1" source="3nBCFJaMM4fNMm-nfA73-90" target="3nBCFJaMM4fNMm-nfA73-92" edge="1">
          <mxGeometry relative="1" as="geometry" />
        </mxCell>
        <mxCell id="3nBCFJaMM4fNMm-nfA73-90" value="I update any information on the character sheet" style="ellipse;whiteSpace=wrap;html=1;" parent="WIyWlLk6GJQsqaUBKTNV-1" vertex="1">
          <mxGeometry x="360" y="1860" width="120" height="80" as="geometry" />
        </mxCell>
        <mxCell id="3nBCFJaMM4fNMm-nfA73-95" style="edgeStyle=orthogonalEdgeStyle;rounded=0;orthogonalLoop=1;jettySize=auto;html=1;entryX=1;entryY=0.5;entryDx=0;entryDy=0;fillColor=#d5e8d4;strokeColor=#82b366;" parent="WIyWlLk6GJQsqaUBKTNV-1" source="3nBCFJaMM4fNMm-nfA73-92" target="3nBCFJaMM4fNMm-nfA73-85" edge="1">
          <mxGeometry relative="1" as="geometry">
            <Array as="points">
              <mxPoint x="580" y="1750" />
            </Array>
          </mxGeometry>
        </mxCell>
        <mxCell id="3nBCFJaMM4fNMm-nfA73-92" value="Auto-populate any dependent information" style="shape=process;whiteSpace=wrap;html=1;backgroundOutline=1;" parent="WIyWlLk6GJQsqaUBKTNV-1" vertex="1">
          <mxGeometry x="520" y="1860" width="120" height="80" as="geometry" />
        </mxCell>
        <mxCell id="3nBCFJaMM4fNMm-nfA73-97" value="See above flow" style="shape=card;whiteSpace=wrap;html=1;" parent="WIyWlLk6GJQsqaUBKTNV-1" vertex="1">
          <mxGeometry x="220" y="1980" width="80" height="80" as="geometry" />
        </mxCell>
        <mxCell id="3nBCFJaMM4fNMm-nfA73-99" value="" style="endArrow=none;html=1;rounded=0;exitX=1;exitY=0.5;exitDx=0;exitDy=0;exitPerimeter=0;fillColor=#d5e8d4;strokeColor=#82b366;" parent="WIyWlLk6GJQsqaUBKTNV-1" source="3nBCFJaMM4fNMm-nfA73-97" edge="1">
          <mxGeometry width="50" height="50" relative="1" as="geometry">
            <mxPoint x="690" y="1710" as="sourcePoint" />
            <mxPoint x="580" y="1750" as="targetPoint" />
            <Array as="points">
              <mxPoint x="660" y="2020" />
              <mxPoint x="660" y="1750" />
            </Array>
          </mxGeometry>
        </mxCell>
        <mxCell id="3nBCFJaMM4fNMm-nfA73-100" value="" style="endArrow=none;html=1;rounded=0;exitX=0.5;exitY=1;exitDx=0;exitDy=0;fillColor=#d5e8d4;strokeColor=#82b366;" parent="WIyWlLk6GJQsqaUBKTNV-1" source="3nBCFJaMM4fNMm-nfA73-86" edge="1">
          <mxGeometry width="50" height="50" relative="1" as="geometry">
            <mxPoint x="690" y="1910" as="sourcePoint" />
            <mxPoint x="1640" y="1700" as="targetPoint" />
            <Array as="points">
              <mxPoint x="100" y="2080" />
              <mxPoint x="1640" y="2080" />
            </Array>
          </mxGeometry>
        </mxCell>
        <mxCell id="3nBCFJaMM4fNMm-nfA73-101" value="Author: Cameron Chrobocinski&lt;br&gt;Date: 4/27/2023&lt;br&gt;&lt;br&gt;Shape legend:&lt;br&gt;&lt;span style=&quot;white-space: pre;&quot;&gt;&amp;nbsp;   &lt;/span&gt;Squared box: Screen&lt;br&gt;&lt;span style=&quot;white-space: pre;&quot;&gt;&amp;nbsp;   &lt;/span&gt;Ellipse: User action&lt;br&gt;&lt;span style=&quot;white-space: pre;&quot;&gt;&amp;nbsp;   &lt;/span&gt;Diamond: Conditional&lt;br&gt;&lt;span style=&quot;white-space: pre;&quot;&gt;&amp;nbsp;   &lt;/span&gt;Bordered box: Page update&lt;br&gt;&lt;span style=&quot;white-space: pre;&quot;&gt;&amp;nbsp;   &lt;/span&gt;Dog-eared box: Reference to previously defined flow&lt;br&gt;&lt;br&gt;Color legend:&lt;br&gt;&lt;span style=&quot;white-space: pre;&quot;&gt;&amp;nbsp;   &lt;/span&gt;Green: Main navigational flow from current position&lt;br&gt;&lt;span style=&quot;white-space: pre;&quot;&gt;&amp;nbsp;   &lt;/span&gt;Yellow: Optional flow from current position&lt;br&gt;&lt;span style=&quot;white-space: pre;&quot;&gt;&amp;nbsp;   &lt;/span&gt;Red: Failure case" style="rounded=0;whiteSpace=wrap;html=1;align=left;" parent="WIyWlLk6GJQsqaUBKTNV-1" vertex="1">
          <mxGeometry x="800" y="40" width="320" height="210" as="geometry" />
        </mxCell>
        <mxCell id="gNNI9D1vy4NJKHtHAIQB-3" style="edgeStyle=orthogonalEdgeStyle;rounded=0;orthogonalLoop=1;jettySize=auto;html=1;entryX=0.5;entryY=0;entryDx=0;entryDy=0;fillColor=#d5e8d4;strokeColor=#82b366;" edge="1" parent="WIyWlLk6GJQsqaUBKTNV-1" source="gNNI9D1vy4NJKHtHAIQB-0" target="gNNI9D1vy4NJKHtHAIQB-2">
          <mxGeometry relative="1" as="geometry" />
        </mxCell>
        <mxCell id="gNNI9D1vy4NJKHtHAIQB-0" value="I interact with a friend request" style="ellipse;whiteSpace=wrap;html=1;" vertex="1" parent="WIyWlLk6GJQsqaUBKTNV-1">
          <mxGeometry x="200" y="800" width="120" height="80" as="geometry" />
        </mxCell>
        <mxCell id="gNNI9D1vy4NJKHtHAIQB-6" style="edgeStyle=orthogonalEdgeStyle;rounded=0;orthogonalLoop=1;jettySize=auto;html=1;entryX=0.5;entryY=0;entryDx=0;entryDy=0;fillColor=#d5e8d4;strokeColor=#82b366;" edge="1" parent="WIyWlLk6GJQsqaUBKTNV-1" source="gNNI9D1vy4NJKHtHAIQB-2" target="gNNI9D1vy4NJKHtHAIQB-4">
          <mxGeometry relative="1" as="geometry" />
        </mxCell>
        <mxCell id="gNNI9D1vy4NJKHtHAIQB-7" style="edgeStyle=orthogonalEdgeStyle;rounded=0;orthogonalLoop=1;jettySize=auto;html=1;entryX=0;entryY=0.5;entryDx=0;entryDy=0;fillColor=#f8cecc;strokeColor=#b85450;" edge="1" parent="WIyWlLk6GJQsqaUBKTNV-1" source="gNNI9D1vy4NJKHtHAIQB-2" target="gNNI9D1vy4NJKHtHAIQB-5">
          <mxGeometry relative="1" as="geometry" />
        </mxCell>
        <mxCell id="gNNI9D1vy4NJKHtHAIQB-2" value="Accept or Reject?" style="rhombus;whiteSpace=wrap;html=1;" vertex="1" parent="WIyWlLk6GJQsqaUBKTNV-1">
          <mxGeometry x="220" y="920" width="80" height="80" as="geometry" />
        </mxCell>
        <mxCell id="gNNI9D1vy4NJKHtHAIQB-4" value="The friend request briefly turns into a green checkmark then disappears" style="shape=process;whiteSpace=wrap;html=1;backgroundOutline=1;" vertex="1" parent="WIyWlLk6GJQsqaUBKTNV-1">
          <mxGeometry x="200" y="1080" width="120" height="80" as="geometry" />
        </mxCell>
        <mxCell id="gNNI9D1vy4NJKHtHAIQB-5" value="The friend request briefly turns into a red X then disappears" style="shape=process;whiteSpace=wrap;html=1;backgroundOutline=1;" vertex="1" parent="WIyWlLk6GJQsqaUBKTNV-1">
          <mxGeometry x="380" y="930" width="120" height="60" as="geometry" />
        </mxCell>
        <mxCell id="gNNI9D1vy4NJKHtHAIQB-8" value="Reject" style="text;html=1;strokeColor=none;fillColor=none;align=center;verticalAlign=middle;whiteSpace=wrap;rounded=0;" vertex="1" parent="WIyWlLk6GJQsqaUBKTNV-1">
          <mxGeometry x="310" y="930" width="60" height="30" as="geometry" />
        </mxCell>
        <mxCell id="gNNI9D1vy4NJKHtHAIQB-9" value="Accept" style="text;html=1;strokeColor=none;fillColor=none;align=center;verticalAlign=middle;whiteSpace=wrap;rounded=0;" vertex="1" parent="WIyWlLk6GJQsqaUBKTNV-1">
          <mxGeometry x="260" y="1020" width="60" height="30" as="geometry" />
        </mxCell>
        <mxCell id="gNNI9D1vy4NJKHtHAIQB-11" value="" style="endArrow=none;html=1;rounded=0;exitX=0.5;exitY=1;exitDx=0;exitDy=0;fillColor=#d5e8d4;strokeColor=#82b366;" edge="1" parent="WIyWlLk6GJQsqaUBKTNV-1" source="gNNI9D1vy4NJKHtHAIQB-5">
          <mxGeometry width="50" height="50" relative="1" as="geometry">
            <mxPoint x="800" y="1310" as="sourcePoint" />
            <mxPoint x="600" y="1700" as="targetPoint" />
            <Array as="points">
              <mxPoint x="440" y="1700" />
            </Array>
          </mxGeometry>
        </mxCell>
        <mxCell id="gNNI9D1vy4NJKHtHAIQB-12" value="" style="endArrow=none;html=1;rounded=0;exitX=0.5;exitY=1;exitDx=0;exitDy=0;fillColor=#d5e8d4;strokeColor=#82b366;" edge="1" parent="WIyWlLk6GJQsqaUBKTNV-1" source="gNNI9D1vy4NJKHtHAIQB-4">
          <mxGeometry width="50" height="50" relative="1" as="geometry">
            <mxPoint x="800" y="1310" as="sourcePoint" />
            <mxPoint x="440" y="1700" as="targetPoint" />
            <Array as="points">
              <mxPoint x="260" y="1700" />
            </Array>
          </mxGeometry>
        </mxCell>
      </root>
    </mxGraphModel>
  </diagram>
</mxfile>
